<?xml version="1.0" standalone="no"?>
<!DOCTYPE svg PUBLIC "-//W3C//DTD SVG 20010904//EN"
 "http://www.w3.org/TR/2001/REC-SVG-20010904/DTD/svg10.dtd">
<svg version="1.0" xmlns="http://www.w3.org/2000/svg"
 width="400.000000pt" height="156.000000pt" viewBox="0 0 400.000000 156.000000"
 preserveAspectRatio="xMidYMid meet">

<g transform="translate(0.000000,156.000000) scale(0.100000,-0.100000)"
fill="#000000" stroke="none">
<path d="M765 1374 c-224 -48 -413 -231 -466 -454 -7 -30 -13 -93 -13 -140 0
-172 54 -302 178 -426 94 -94 183 -143 308 -168 123 -25 118 -28 118 57 1 68
2 70 14 42 16 -38 35 -53 74 -61 36 -7 37 -5 18 39 -15 37 -51 72 -83 81 -19
6 -23 2 -33 -33 -12 -44 -51 -81 -86 -81 -21 0 -22 2 -13 30 12 33 72 90 94
90 12 0 15 17 15 85 l0 85 -28 0 c-49 0 -119 30 -166 71 -122 107 -136 293
-31 417 38 45 120 90 178 98 l47 7 0 138 0 139 -27 -1 c-16 0 -59 -7 -98 -15z
m-35 -152 c0 -13 -63 -69 -97 -86 -38 -19 -40 -13 -13 32 24 40 110 82 110 54z
m-175 -85 c4 -12 1 -35 -4 -50 -11 -27 -10 -27 14 -11 25 16 70 16 70 -1 0
-17 -73 -47 -95 -40 -32 10 -43 49 -25 90 16 40 32 45 40 12z m-75 -135 c0
-33 1 -34 18 -20 21 20 59 31 72 23 27 -16 -43 -75 -89 -75 -41 0 -62 60 -40
117 10 27 11 27 25 9 8 -11 14 -35 14 -54z m-61 -88 c12 -15 21 -35 21 -45 0
-10 5 -21 10 -24 6 -3 10 0 10 8 0 18 29 43 58 50 26 6 28 -3 7 -43 -48 -94
-145 -69 -145 36 0 51 10 55 39 18z m96 -214 c-39 -76 -127 -47 -155 51 -7 24
-6 29 8 29 22 -1 51 -23 73 -56 l17 -26 7 31 c3 17 19 40 33 52 l27 21 3 -35
c2 -20 -4 -50 -13 -67z m55 -61 c13 -46 6 -92 -17 -114 -35 -36 -122 -6 -156
54 l-18 31 29 0 c16 0 46 -11 66 -25 20 -14 39 -25 41 -25 2 0 1 16 -2 35 -4
23 0 43 11 60 23 35 34 31 46 -16z m95 -133 c8 -20 15 -46 15 -60 0 -30 -43
-66 -79 -66 -51 1 -146 58 -128 77 12 11 93 5 130 -11 l37 -15 -22 29 c-24 33
-28 81 -8 105 12 14 14 13 27 -5 8 -11 20 -35 28 -54z m144 -90 c29 -58 19
-89 -36 -113 -31 -13 -46 -13 -89 -4 -28 7 -59 18 -69 25 -18 13 -17 14 5 26
13 7 52 15 87 18 l63 5 -24 22 c-29 27 -40 58 -31 92 l6 25 32 -24 c18 -13 43
-46 56 -72z"/>
<path d="M1055 1207 c18 -28 65 -64 101 -77 23 -9 25 -8 18 12 -13 44 -72 88
-119 88 -14 0 -14 -2 0 -23z"/>
<path d="M2970 1219 c-45 -10 -70 -42 -70 -88 0 -50 28 -75 116 -104 49 -16
72 -29 80 -45 17 -34 6 -61 -32 -79 -29 -14 -37 -14 -71 -2 -23 9 -43 26 -51
42 -23 47 -42 34 -42 -28 0 -42 3 -55 15 -55 8 0 15 7 15 15 0 14 3 14 30 0
16 -8 51 -15 78 -15 40 0 54 5 76 26 14 15 27 36 28 48 5 75 -21 109 -102 132
-74 21 -100 39 -100 69 0 26 33 55 63 55 29 0 75 -28 82 -50 4 -13 14 -20 23
-18 13 2 18 16 20 51 3 42 1 47 -17 47 -13 0 -21 -7 -21 -16 0 -13 -3 -14 -14
-5 -23 19 -69 28 -106 20z"/>
<path d="M1680 1180 c0 -44 26 -58 32 -17 2 17 11 23 36 25 l32 3 0 -150 c0
-128 -2 -151 -15 -151 -8 0 -15 -7 -15 -15 0 -12 13 -15 55 -15 42 0 55 3 55
15 0 8 -7 15 -15 15 -13 0 -15 23 -15 151 l0 150 33 -3 c24 -2 33 -8 35 -25 6
-41 32 -27 32 17 l0 40 -125 0 -125 0 0 -40z"/>
<path d="M1967 1213 c-13 -12 -7 -22 16 -25 21 -3 22 -6 25 -146 2 -137 2
-144 -18 -149 -11 -3 -20 -12 -20 -19 0 -11 26 -14 130 -14 l130 0 0 45 c0 38
-3 45 -19 45 -14 0 -21 -8 -23 -27 -3 -27 -5 -28 -70 -31 l-68 -3 0 70 0 70
57 3 c46 2 59 7 61 21 3 15 -5 17 -57 17 l-61 0 0 60 0 60 70 0 c68 0 70 -1
70 -25 0 -18 5 -25 20 -25 17 0 20 7 20 40 l0 40 -128 0 c-71 0 -132 -3 -135
-7z"/>
<path d="M2270 1206 c0 -7 8 -16 18 -18 10 -3 37 -38 60 -78 l42 -72 -45 -69
c-25 -38 -52 -72 -60 -75 -8 -4 -15 -12 -15 -20 0 -10 15 -14 55 -14 42 0 55
3 55 15 0 8 -7 15 -16 15 -19 0 -15 12 21 71 l27 42 29 -49 c33 -57 35 -64 13
-64 -36 0 -4 -25 36 -28 58 -4 67 8 33 45 -15 17 -41 55 -57 84 l-29 54 47 73
c25 39 50 72 56 72 5 0 10 7 10 15 0 11 -12 15 -50 15 -38 0 -50 -4 -50 -15 0
-8 5 -15 10 -15 17 0 11 -24 -19 -68 l-28 -43 -27 45 c-28 47 -32 66 -16 66 6
0 10 7 10 15 0 12 -13 15 -55 15 -40 0 -55 -4 -55 -14z"/>
<path d="M2660 1206 c0 -8 4 -17 9 -21 12 -7 -76 -276 -95 -291 -28 -23 -15
-35 33 -32 48 3 69 22 34 31 -20 5 -20 7 -5 51 l16 47 61 -3 60 -3 13 -43 c10
-36 10 -44 -2 -49 -8 -3 -14 -12 -14 -20 0 -11 12 -13 52 -11 52 3 75 21 40
30 -15 4 -30 38 -64 144 -25 78 -41 143 -36 149 21 24 7 35 -47 35 -41 0 -55
-4 -55 -14z m94 -163 c7 -22 5 -23 -43 -23 l-50 0 20 58 c10 31 22 64 25 72 6
14 20 -19 48 -107z"/>
<path d="M1224 1146 c-3 -14 -3 -38 1 -53 5 -23 4 -26 -6 -15 -15 14 -79 16
-79 2 0 -15 61 -50 87 -50 13 0 30 11 39 25 13 20 14 30 4 59 -6 19 -17 40
-25 46 -11 10 -15 7 -21 -14z"/>
<path d="M797 1065 c-58 -22 -110 -68 -142 -127 -57 -103 -31 -249 57 -323
115 -97 286 -85 381 26 120 140 61 365 -112 424 -55 18 -133 18 -184 0z m124
-82 l25 -78 95 -5 94 -5 -73 -53 c-39 -29 -72 -58 -72 -65 0 -8 11 -47 25 -87
14 -40 24 -75 22 -76 -1 -1 -31 20 -67 46 -36 27 -71 50 -78 50 -7 0 -43 -22
-80 -49 -37 -27 -68 -48 -69 -47 -2 1 10 41 26 87 l28 85 -75 54 -76 55 94 3
95 3 24 79 c13 44 27 80 30 80 4 0 18 -35 32 -77z"/>
<path d="M1301 1034 c-5 -19 -7 -43 -3 -52 4 -13 -1 -11 -22 6 -32 25 -76 30
-76 8 0 -23 59 -66 90 -66 49 0 77 69 50 121 -16 28 -28 23 -39 -17z"/>
<path d="M1367 922 c-9 -10 -22 -33 -28 -51 -11 -32 -11 -32 -23 -9 -12 23
-63 54 -73 44 -11 -10 7 -53 33 -79 56 -56 124 -18 124 69 0 48 -8 54 -33 26z"/>
<path d="M1246 758 c21 -140 144 -137 178 5 3 15 4 27 1 27 -20 0 -69 -36 -85
-63 -18 -29 -20 -30 -20 -9 0 24 -49 82 -69 82 -7 0 -9 -15 -5 -42z"/>
<path d="M2170 640 c0 -91 3 -110 15 -110 12 0 15 19 15 110 0 91 -3 110 -15
110 -12 0 -15 -19 -15 -110z"/>
<path d="M2340 640 c0 -101 2 -111 18 -108 13 2 18 16 22 63 4 44 9 60 20 60
11 0 16 -15 18 -62 2 -47 7 -63 17 -63 12 0 15 15 15 70 0 73 -12 93 -51 83
-14 -4 -18 2 -21 28 -2 23 -9 35 -20 37 -16 3 -18 -7 -18 -108z"/>
<path d="M2910 714 c0 -30 -3 -36 -19 -31 -43 11 -76 -40 -65 -100 8 -41 44
-64 69 -43 10 8 15 9 15 1 0 -6 7 -11 15 -11 12 0 15 19 15 110 0 91 -3 110
-15 110 -11 0 -15 -11 -15 -36z m-4 -79 c9 -38 -3 -77 -24 -73 -17 3 -29 56
-18 84 9 23 35 16 42 -11z"/>
<path d="M1732 638 c3 -89 5 -103 21 -106 14 -3 17 4 17 48 0 50 1 51 28 48
25 -3 27 -7 30 -50 2 -34 7 -48 18 -48 11 0 14 20 14 105 0 85 -3 105 -14 105
-10 0 -16 -14 -18 -42 -3 -39 -6 -43 -30 -46 -27 -3 -28 -2 -28 42 0 40 -3 46
-20 46 -20 0 -21 -5 -18 -102z"/>
<path d="M3032 638 c3 -89 5 -103 21 -106 14 -3 17 4 17 48 0 50 1 51 28 48
25 -3 27 -7 30 -50 2 -34 7 -48 18 -48 11 0 14 20 14 105 0 85 -3 105 -14 105
-10 0 -16 -14 -18 -42 -3 -39 -6 -43 -30 -46 -27 -3 -28 -2 -28 42 0 40 -3 46
-20 46 -20 0 -21 -5 -18 -102z"/>
<path d="M2253 703 c-4 -10 -11 -22 -17 -26 -8 -6 -7 -10 2 -14 7 -3 12 -24
12 -57 0 -54 12 -76 42 -76 22 0 23 16 3 36 -8 9 -15 33 -15 55 0 32 3 39 20
39 11 0 20 5 20 10 0 6 -7 10 -16 10 -9 0 -18 9 -21 20 -7 25 -21 26 -30 3z"/>
<path d="M1921 673 c-55 -45 -24 -148 43 -141 39 4 40 21 1 28 -18 3 -31 12
-33 23 -3 13 4 17 31 17 18 0 36 3 39 6 5 5 -7 63 -14 69 -16 14 -49 13 -67
-2z m49 -33 c0 -13 -7 -20 -20 -20 -19 0 -27 20 -13 33 13 14 33 6 33 -13z"/>
<path d="M2058 683 c-27 -7 -22 -21 9 -25 39 -4 38 -22 -2 -37 -31 -11 -35
-16 -35 -47 0 -19 3 -35 8 -35 4 -1 26 -3 50 -3 l42 -2 0 68 c0 64 -2 69 -26
78 -14 6 -26 9 -27 9 -1 -1 -10 -3 -19 -6z m42 -97 c0 -23 -22 -41 -34 -29
-11 11 -6 41 7 46 23 10 27 7 27 -17z"/>
<path d="M2568 683 c-27 -7 -21 -21 9 -25 39 -4 38 -22 -2 -37 -29 -10 -35
-17 -35 -40 0 -37 16 -49 64 -47 l40 2 -3 64 c-1 36 -5 68 -9 71 -11 11 -46
17 -64 12z m42 -97 c0 -23 -22 -41 -34 -29 -11 11 -6 41 7 46 23 10 27 7 27
-17z"/>
<path d="M2731 681 c-7 -5 -22 -6 -32 -4 -17 5 -19 -1 -19 -72 0 -67 2 -76 18
-73 13 2 18 16 22 63 4 44 9 60 20 60 11 0 16 -15 18 -62 2 -47 7 -63 17 -63
12 0 15 15 15 70 0 58 -3 71 -19 80 -23 12 -22 12 -40 1z"/>
<path d="M3401 681 c-7 -5 -22 -6 -32 -4 -17 5 -19 -1 -19 -71 0 -60 3 -76 15
-76 10 0 15 16 17 62 2 50 7 63 20 66 14 3 17 -7 20 -60 2 -50 7 -63 20 -66
14 -3 17 7 20 60 2 48 7 63 18 63 11 0 16 -15 18 -63 3 -53 6 -63 20 -60 14 3
17 15 17 67 0 71 -19 97 -59 81 -13 -5 -29 -4 -37 1 -17 11 -21 11 -38 0z"/>
<path d="M3587 683 c-24 -6 -11 -23 18 -23 12 0 25 -7 29 -15 4 -10 -1 -15
-14 -15 -22 0 -60 -33 -60 -52 0 -28 20 -42 64 -44 l46 -3 0 62 c0 34 -4 67
-8 74 -9 14 -50 23 -75 16z m53 -92 c0 -10 -7 -24 -15 -31 -12 -10 -16 -9 -21
4 -3 9 -4 23 0 31 8 21 36 19 36 -4z"/>
<path d="M3761 681 c-7 -5 -22 -6 -32 -4 -17 5 -19 -1 -19 -71 0 -61 3 -76 15
-76 11 0 15 12 15 49 0 58 7 81 25 81 18 0 25 -23 25 -81 0 -37 4 -49 15 -49
22 0 21 122 -1 144 -18 18 -24 19 -43 7z"/>
<path d="M1216 672 c-3 -5 -8 -28 -12 -50 -12 -76 28 -125 94 -114 25 4 102
74 102 93 0 18 -75 4 -109 -20 l-30 -22 6 36 c8 48 -32 108 -51 77z"/>
<path d="M3200 616 c0 -74 8 -84 68 -83 l42 0 0 73 c0 59 -3 74 -15 74 -11 0
-15 -12 -15 -44 0 -53 -8 -76 -25 -76 -17 0 -25 23 -25 76 0 32 -4 44 -15 44
-12 0 -15 -14 -15 -64z"/>
<path d="M1131 546 c-56 -91 -32 -166 55 -166 31 0 93 31 117 58 19 20 18 21
-16 27 -31 6 -70 0 -122 -21 -19 -7 -19 -6 -4 12 25 30 30 55 18 91 -13 42
-22 42 -48 -1z"/>
<path d="M1002 466 c-48 -52 -61 -96 -37 -132 34 -52 136 -57 200 -10 19 14
18 15 -17 30 -21 9 -61 16 -89 16 l-52 0 26 20 c28 22 42 67 32 100 -9 29 -17
25 -63 -24z"/>
<path d="M1760 427 c-16 -8 -26 -23 -28 -42 -3 -24 3 -36 35 -62 32 -27 36
-35 27 -50 -6 -10 -23 -18 -38 -18 -28 1 -46 -24 -18 -27 64 -5 92 11 92 56 0
23 -9 38 -37 62 -41 34 -41 64 1 64 30 0 42 15 20 24 -21 8 -25 8 -54 -7z"/>
<path d="M2230 415 c0 -8 7 -15 15 -15 8 0 15 7 15 15 0 8 -7 15 -15 15 -8 0
-15 -7 -15 -15z"/>
<path d="M1880 360 c-22 -22 -27 -78 -10 -110 11 -20 50 -33 74 -24 24 9 19
24 -7 24 -23 0 -47 17 -47 32 0 4 18 8 40 8 35 0 40 3 40 23 0 31 -27 67 -51
67 -10 0 -28 -9 -39 -20z m53 -41 c-7 -7 -19 -9 -28 -5 -13 5 -14 10 -4 27 10
20 12 20 27 5 12 -12 13 -19 5 -27z"/>
<path d="M2000 305 c0 -60 3 -75 15 -75 11 0 15 12 15 45 0 33 5 50 20 62 20
17 27 43 12 43 -4 0 -13 -5 -20 -12 -9 -9 -12 -9 -12 0 0 7 -7 12 -15 12 -12
0 -15 -15 -15 -75z"/>
<path d="M2090 374 c0 -4 9 -38 20 -75 27 -90 48 -93 73 -9 21 72 21 90 3 90
-9 0 -17 -16 -21 -42 -11 -65 -18 -68 -30 -13 -7 34 -16 51 -28 53 -9 2 -17 0
-17 -4z"/>
<path d="M2230 305 c0 -60 3 -75 15 -75 12 0 15 15 15 75 0 60 -3 75 -15 75
-12 0 -15 -15 -15 -75z"/>
<path d="M2328 370 c-25 -15 -41 -72 -28 -104 11 -30 54 -51 77 -37 13 7 11
11 -13 22 -24 12 -29 21 -29 49 0 28 5 37 28 48 15 7 25 17 22 23 -8 12 -35
11 -57 -1z"/>
<path d="M2426 364 c-55 -54 -9 -156 62 -137 28 7 19 23 -13 23 -14 0 -29 9
-35 20 -10 18 -8 20 30 20 38 0 40 2 40 29 0 53 -50 79 -84 45z m52 -37 c2
-12 -3 -17 -17 -17 -15 0 -21 6 -21 21 0 25 33 22 38 -4z"/>
<path d="M2552 368 c-20 -20 -14 -55 15 -76 28 -20 25 -42 -7 -42 -28 0 -33
-17 -8 -24 28 -7 68 18 68 44 0 10 -11 27 -25 38 -30 24 -32 42 -5 42 11 0 20
7 20 15 0 18 -41 20 -58 3z"/>
</g>
</svg>
